<?xml version="1.0" encoding="utf-8"?>
<!-- Generator: Adobe Illustrator 26.0.2, SVG Export Plug-In . SVG Version: 6.00 Build 0)  -->
<svg version="1.1" id="Layer_1" xmlns="http://www.w3.org/2000/svg" xmlns:xlink="http://www.w3.org/1999/xlink" x="0px" y="0px"
	 viewBox="0 0 210 27" style="enable-background:new 0 0 210 27;" xml:space="preserve">
<style type="text/css">
	.st0{fill:#ED4714;}
	.st1{fill:none;}
</style>
<g>
	<path d="M18.09,0.57c-2.63,0-4.67,0.86-6.09,2.58c0.59-2.41-5.12-2.91-4.25-0.16c0.32,5.65-1.41,16.48,0.46,21.76
		c1.09,0.75,1.89,0.51,2.9-0.31C26.8,30.43,35.64,1,18.09,0.57z M22.8,15.31c-0.5,1.82-1.43,3.44-2.77,4.87
		c-2.55,3.02-8.83,3.98-8.74-0.72c0.14-2.66-0.43-8.9,0.65-11.34c0.71-2.15,3.72-5.09,6.49-5.02C24.03,2.56,24.08,11.41,22.8,15.31z
		"/>
	<path d="M39.77,10.08c-1.56-0.75-3.31-0.57-4.58,0.62c-0.92-1.17-4.43-0.75-4.12,0.9c0,1.15,0.07,2.88,0.21,5.19
		s0.21,4.05,0.21,5.22c-0.52,1.32-0.03,2.75,2.04,2.65c1.49-0.01,2.64-0.94,1.77-2.21c-0.48-1.04-0.3-5.87,0.23-6.99
		c0.73-2.18,1.34-3.27,1.85-3.27c0.84,0,1.29,0.52,1.34,1.55C40.69,15.97,44.46,12.71,39.77,10.08z"/>
	<path d="M55.69,20.69c-3.08,0.93-8.1,4.11-8.28-1.55c5.89,2.45,13.8-3.76,6.91-7.75c-4.05-2.46-7.21-2.6-9.35,2.03
		c-0.98,2.02-1.47,3.86-1.47,5.52c-0.42,5.88,5.91,7.09,11.14,5.27C57.1,23.57,59.19,20.74,55.69,20.69z M48.55,13.6
		c1.51-2.01,4.52-0.69,4.37,1.41C52.91,18.26,45.66,17.85,48.55,13.6z"/>
	<path d="M66.99,9.91c-3.13-0.3-7.58,3.24-4.94,5.53c0.86,0.7,2.67,0.83,2.67-0.32c0-1.68,1.11-2.52,3.32-2.52
		c2.16-0.15,2.79,2.2,2.61,4.41h-3.57c-2.43-0.12-7.42,2.1-7.27,4.31c0.45,3.73,7.46,4.36,10.88,2.79
		c-0.67,2.05,3.44,2.73,3.87,0.86C75.35,19.94,75.89,9.32,66.99,9.91z M69.13,21.73c-1.26,0.81-5.01,1.08-5-0.45
		c0-1.36,1.75-2.03,5.25-2.03C71.61,19.26,70.56,21.14,69.13,21.73z"/>
	<path d="M94,9.08c-2.31,0.09-3.02,1.25-4.03,3.14c-1.53-2.95-5.09-3.62-7.06-0.96c0.16-0.9-1.06-1.75-2.1-1.72
		c-0.48,0-0.92,0.55-1.34,1.65c-0.92,1.65-0.36,7.93-0.5,9.69c-0.05,0.39,0.47,3.12,0.76,3.37c1.09,1.08,3.57,0.47,3.45-1.04
		c0.03-0.62-0.41-2.54-0.38-3.17c0-2.53,1.01-4.89,3.04-7.1c1.38-1.78,1.76,0.4,1.8,3.24v6.41c0.12,1.26,2.21,2.33,3.53,1.29
		c1.23-0.61,0.44-1.58,0.29-2.4c0.01-2.3-0.3-9.02,2.83-9.72c1.69-0.98,2.03,9.34,1.83,12.95c1.76,0.74,2.02,0.6,3.82-0.24
		C99.8,19.51,101.2,9.93,94,9.08z"/>
	<path class="st0" d="M133.87,4.02c1.67-1.19-0.56-3.5-2.39-3.38c-3.61,0.82-2.89,6.76-3.24,11.51c-3.23-0.08-7.89,0.59-11.3,1.1
		c-0.2-3.7,0.66-6.62,1.97-9.68c-0.12-2.05-4.3-2.63-5.08-0.52c-0.82,0.98-0.68,7.86-1.09,10.92c-0.52,0.2-1.61,0.23-1.6,0.86
		c-0.01,0.87,0.6,2,1.72,2.17c0.87,5.84-0.51,7.63,3.49,7.96c1.12,0,1.68-0.3,1.68-0.9c-1.58-1.66-0.91-6.24-1.26-7.51
		c3.56-0.53,8.22-1.41,11.56-1.48c0.69,2.26-1.15,11.75,4.24,8.77c0.83-0.84,0.74-1.25,0.3-2.39c-0.69-1.48-0.55-4.55-0.63-6.41
		c0.63-0.14,2.05-0.14,2.06-0.79c0.03-0.72-1.07-1.97-2.06-1.69C132.22,9.15,131.88,5.32,133.87,4.02z"/>
	<path class="st0" d="M148.32,10.22c-8.41-3.92-13.01,9.04-8.57,13.3c1.26,1.38,3.12,2.07,5.59,2.07
		C154.5,25.55,155.43,13.1,148.32,10.22z M148.53,21.17c-0.7,1.26-1.77,1.9-3.19,1.9c-4.97,0.22-4.31-10.68,0.88-10.65
		C149.47,11.93,150.06,18.8,148.53,21.17z"/>
	<path class="st0" d="M169.35,10.94c-1.25-0.75-2.6-0.7-3.84,0.28c0.83,1.48,0.41,4.58,0.5,6.1c0,1.24-0.2,2.3-0.59,3.17
		c-1.42,3.15-4.85,1.95-4.83-0.86v-4.86c-0.03-0.64,0.45-2.67,0.42-3.31c0.02-1.92-2.49-2.02-4.16-0.86
		c0.25,3.47-1.12,9.67,1.05,12.34c1.84,1.78,5.59,2.49,8.07,0.96c0.12,1.44,3.63,1.84,3.78,0.52c0.02-1.09-0.23-4.61-0.21-5.71
		C169.23,17.03,171.23,11.96,169.35,10.94z"/>
	<path class="st0" d="M184.49,19.25c-2.22-0.96-6.77-1.82-6.81-4.1c-0.24-3.64,4.1-4.68,4.25-1.24c0.08,0.35-0.85,1.52-0.8,1.65
		c0.59,0.97,2.88,1.58,3.99,0.72c2.56-3.46-2.16-6.9-6.26-7.03c-3.17-0.07-5.33,3.13-5.25,5.55c0,2.21,1.6,4.09,4.79,5.65
		c-0.11-0.02,3.69,0.89,3.61,1.05c-0.01,0.14,0.13,0.5,0.13,0.64c-0.55,1.77-6.45,0.19-6.39-1.38c-1.66-0.19-3.6,0.23-3.45,1.48
		c-0.48,0.7,5.64,3.15,7.94,2.96c2.07,0,3.73-0.44,4.96-1.31C187.2,22.3,187.95,20.33,184.49,19.25z"/>
	<path class="st0" d="M200.91,20.69c-3.08,0.93-8.1,4.11-8.28-1.55c5.89,2.45,13.8-3.76,6.91-7.75c-4.05-2.46-7.21-2.6-9.35,2.03
		c-0.98,2.02-1.47,3.86-1.47,5.51c-0.42,5.87,5.91,7.09,11.14,5.27C202.32,23.57,204.41,20.74,200.91,20.69z M193.77,13.6
		c1.51-2.01,4.52-0.69,4.37,1.41C198.13,18.26,190.87,17.85,193.77,13.6z"/>
</g>
<rect x="117.5" y="-29.19" class="st1" width="395" height="109"/>
<g>
	<g>
		<path d="M-223.5,233.31c3.22,0,3.22-5,0-5S-226.72,233.31-223.5,233.31L-223.5,233.31z"/>
	</g>
</g>
</svg>
